<?xml version="1.0" encoding="UTF-8" standalone="no"?>
<svg
   xmlns:dc="http://purl.org/dc/elements/1.1/"
   xmlns:cc="http://creativecommons.org/ns#"
   xmlns:rdf="http://www.w3.org/1999/02/22-rdf-syntax-ns#"
   xmlns:svg="http://www.w3.org/2000/svg"
   xmlns="http://www.w3.org/2000/svg"
   viewBox="0 0 510.93332 390.39999"
   height="15.39999"
   width="25.93332"
   xml:space="preserve"
   id="svg2"
   version="1.1"><metadata
     id="metadata8"><rdf:RDF><cc:Work
         rdf:about=""><dc:format>image/svg+xml</dc:format><dc:type
           rdf:resource="http://purl.org/dc/dcmitype/StillImage" /></cc:Work></rdf:RDF></metadata><defs
     id="defs6"><clipPath
       id="clipPath18"
       clipPathUnits="userSpaceOnUse"><path
         id="path16"
         d="M 0,292.8 H 383.2 V 0 H 0 Z" /></clipPath></defs><g
     transform="matrix(1.3333333,0,0,-1.3333333,0,390.4)"
     id="g10"><g
       id="g12"><g
         clip-path="url(#clipPath18)"
         id="g14"><g
           transform="translate(379.2,252.8)"
           id="g20"><path
             id="path22"
             style="fill:#ffffff;fill-opacity:1;fill-rule:nonzero;stroke:none"
             d="M 0,0 -15.2,15.2 -156,-125.6 c -17.6,-17.6 -47.2,-17.6 -64.8,0 l -140.8,140 -15.2,-15.2 104.8,-104.8 -104.8,-104.8 15.2,-15.2 104.8,104.8 20.8,-20.8 c 12.8,-12.8 29.6,-20 47.2,-20 17.6,0 34.4,7.2 47.2,20 l 20.8,20.8 104.8,-104.8 15.2,15.2 -104.8,104.8 L 0,0" /></g><g
           transform="translate(349.6003,-2e-4)"
           id="g24"><path
             id="path26"
             style="fill:#ffffff;fill-opacity:1;fill-rule:nonzero;stroke:none"
             d="m 0,0 h -316 c -18.4,0 -33.601,15.2 -33.601,33.601 V 259.2 c 0,18.4 15.201,33.6 33.601,33.6 H 0 c 18.399,0 33.6,-15.2 33.6,-33.6 V 33.601 C 33.6,15.2 18.399,0 0,0 m -316.8,271.2 c -6.4,0 -11.2,-4.8 -11.2,-11.2 V 34.4 c 0,-6.4 4.8,-11.2 11.2,-11.2 H -0.801 c 6.401,0 11.2,4.8 11.2,11.2 V 260 c 0,6.4 -4.799,11.2 -11.2,11.2 z" /></g></g></g></g></svg>