<?xml version="1.0" encoding="UTF-8" standalone="no"?>
<svg
   xmlns:dc="http://purl.org/dc/elements/1.1/"
   xmlns:cc="http://creativecommons.org/ns#"
   xmlns:rdf="http://www.w3.org/1999/02/22-rdf-syntax-ns#"
   xmlns:svg="http://www.w3.org/2000/svg"
   xmlns="http://www.w3.org/2000/svg"
   viewBox="0 0 356.48001 317.18799"
   height="317.18799"
   width="356.48001"
   xml:space="preserve"
   id="svg2"
   version="1.1"><metadata
     id="metadata8"><rdf:RDF><cc:Work
         rdf:about=""><dc:format>image/svg+xml</dc:format><dc:type
           rdf:resource="http://purl.org/dc/dcmitype/StillImage" /></cc:Work></rdf:RDF></metadata><defs
     id="defs6"><clipPath
       id="clipPath18"
       clipPathUnits="userSpaceOnUse"><path
         id="path16"
         d="M 0,237.891 H 267.36 V 0 H 0 Z" /></clipPath></defs><g
     transform="matrix(1.3333333,0,0,-1.3333333,0,317.188)"
     id="g10"><g
       id="g12"><g
         clip-path="url(#clipPath18)"
         id="g14"><g
           transform="translate(8.1094,24.3633)"
           id="g20"><path
             id="path22"
             style="fill:#376733;fill-opacity:1;fill-rule:nonzero;stroke:none"
             d="m 0,0 c 3.342,0 5.739,-0.318 8.305,-1.083 v -3.569 c -0.032,0 -4.037,0.451 -7.23,0.451 -3.337,0 -4.624,-0.764 -4.624,-7.982 0,-5.341 0.883,-7.914 4.642,-7.914 3.419,0 7.212,0.264 7.212,0.264 v -3.569 C 6.169,-24.06 3.414,-24.353 0,-24.299 c -6.026,0.054 -8.109,4.624 -8.109,12.183 C -8.109,-4.494 -6.482,0 0,0" /></g><g
           transform="translate(31.6958,9.584)"
           id="g24"><path
             id="path26"
             style="fill:#376733;fill-opacity:1;fill-rule:nonzero;stroke:none"
             d="M 0,0 -2.679,8.51 -5.544,0 Z m -5.302,14.52 h 5.187 L 7.629,-9.323 H 2.774 L 1.081,-4.04 h -7.81 l -1.72,-5.283 h -4.898 z" /></g><g
           transform="translate(41.7632,24.1035)"
           id="g28"><path
             id="path30"
             style="fill:#376733;fill-opacity:1;fill-rule:nonzero;stroke:none"
             d="m 0,0 h 4.625 l 9.461,-15.407 V 0 h 4.56 v -23.843 h -4.56 L 4.593,-8.615 V -23.843 H 0 Z" /></g><g
           transform="translate(63.8511,24.1035)"
           id="g32"><path
             id="path34"
             style="fill:#376733;fill-opacity:1;fill-rule:nonzero;stroke:none"
             d="m 0,0 h 4.625 l 9.46,-15.407 V 0 h 4.561 V -23.843 H 14.085 L 4.593,-8.615 V -23.843 H 0 Z" /></g><g
           transform="translate(98.4151,9.584)"
           id="g36"><path
             id="path38"
             style="fill:#376733;fill-opacity:1;fill-rule:nonzero;stroke:none"
             d="M 0,0 -2.679,8.51 -5.545,0 Z m -5.302,14.52 h 5.187 L 7.629,-9.323 H 2.773 L 1.08,-4.04 h -7.809 l -1.72,-5.283 h -4.899 z" /></g><g
           transform="translate(118.2232,4.2822)"
           id="g40"><path
             id="path42"
             style="fill:#376733;fill-opacity:1;fill-rule:nonzero;stroke:none"
             d="M 0,0 C 1.384,0 2.637,0.657 2.637,3.19 2.637,4.937 1.93,6.532 0,6.532 H -5.166 V 0 Z m -0.179,10.375 c 1.636,0 2.506,0.998 2.506,2.702 0,2.209 -1.35,2.722 -2.506,2.722 h -4.987 v -5.424 z m -9.562,9.446 H 0.09 c 4.934,0 6.726,-2.944 6.726,-6.369 C 6.816,11.258 5.88,8.786 3.55,8.354 5.539,7.993 7.196,6.014 7.196,2.98 c 0,-4.431 -2.001,-7.001 -7.017,-7.001 h -9.92 z" /></g><path
           id="path44"
           style="fill:#376733;fill-opacity:1;fill-rule:nonzero;stroke:none"
           d="m 128.159,24.103 h 4.56 V 0.26 h -4.56 z" /><g
           transform="translate(135.7774,18.1416)"
           id="g46"><path
             id="path48"
             style="fill:#376733;fill-opacity:1;fill-rule:nonzero;stroke:none"
             d="m 0,0 c 0,4.725 2.802,6.104 6.448,6.157 3.43,0.072 7.336,-0.386 9.219,-0.943 V 1.629 C 13.582,1.813 8.886,1.955 7.703,1.955 5.71,1.999 4.56,1.86 4.56,-0.357 v -1.165 c 0,-1.889 0.723,-2.296 2.57,-2.296 h 3.766 c 4.671,0 5.635,-3.684 5.635,-6.319 v -1.588 c 0,-5.414 -3.373,-6.417 -6.597,-6.417 -4.069,0 -6.734,0.249 -9.2,0.976 v 3.585 c 1.304,-0.131 5.276,-0.359 8.305,-0.359 1.371,0 2.934,0.227 2.934,2.053 v 1.283 c 0,1.356 -0.411,2.226 -2.153,2.226 H 6.156 C 0.406,-8.378 0,-4.133 0,-2.06 Z" /></g><g
           transform="translate(155.3614,24.1035)"
           id="g50"><path
             id="path52"
             style="fill:#376733;fill-opacity:1;fill-rule:nonzero;stroke:none"
             d="m 0,0 h 4.561 v -10.212 h 8.175 V 0 h 4.56 v -23.843 h -4.56 v 9.43 H 4.561 v -9.43 H 0 Z" /></g><g
           transform="translate(175.9913,19.1523)"
           id="g54"><path
             id="path56"
             style="fill:#376733;fill-opacity:1;fill-rule:nonzero;stroke:none"
             d="m 0,0 c 0,4.137 2.931,4.994 5.18,4.951 0,0 8.392,-0.234 10.488,-0.521 V 0.659 H 6.253 C 4.56,0.659 4.56,-0.285 4.56,-1.165 v -3.719 l 9.627,-0.345 V -8.978 L 4.56,-9.285 v -3.72 c 0.015,-1.726 1.074,-1.693 2.02,-1.693 h 9.088 v -3.738 C 13.823,-18.687 5.505,-18.989 5.505,-18.989 3.378,-19.084 0,-18.602 0,-14.204 Z" /></g><g
           transform="translate(207.0284,9.584)"
           id="g58"><path
             id="path60"
             style="fill:#376733;fill-opacity:1;fill-rule:nonzero;stroke:none"
             d="M 0,0 -2.68,8.51 -5.545,0 Z m -5.302,14.52 h 5.186 L 7.628,-9.323 H 2.773 L 1.08,-4.04 h -7.809 l -1.72,-5.283 h -4.899 z" /></g><g
           transform="translate(217.0957,24.1035)"
           id="g62"><path
             id="path64"
             style="fill:#376733;fill-opacity:1;fill-rule:nonzero;stroke:none"
             d="m 0,0 h 4.561 v -17.948 c 0,-1.726 1.074,-1.694 2.018,-1.694 h 8.177 v -4.201 H 4.967 C 2.37,-23.843 0,-22.883 0,-19.202 Z" /></g><g
           transform="translate(229.7852,24.1035)"
           id="g66"><path
             id="path68"
             style="fill:#376733;fill-opacity:1;fill-rule:nonzero;stroke:none"
             d="M 0,0 H 17.622 V -4.202 H 10.993 V -23.843 H 6.434 v 19.641 l -6.434,0 z" /></g><g
           transform="translate(250.0645,24.1035)"
           id="g70"><path
             id="path72"
             style="fill:#376733;fill-opacity:1;fill-rule:nonzero;stroke:none"
             d="m 0,0 h 4.561 v -10.212 h 8.174 V 0 h 4.561 v -23.843 h -4.561 v 9.43 H 4.561 v -9.43 H 0 Z" /></g><g
           transform="translate(107.1456,107.9194)"
           id="g74"><path
             id="path76"
             style="fill:#649e5f;fill-opacity:1;fill-rule:nonzero;stroke:none"
             d="m 0,0 c 23.952,0 85.041,6.116 134.931,62.775 l 0.149,0.168 c 0.36,2.653 0.613,5.337 0.613,8.09 0,32.55 -26.383,58.939 -58.938,58.939 -12.975,0 -24.942,-4.229 -34.664,-11.351 l 0.878,-0.004 c 34.267,1.964 57.366,-11.718 57.366,-11.718 0,0 -24.391,-9.201 -56.961,-2.13 32.478,-24.78 42.244,-55.402 42.244,-55.402 0,0 -29.44,11.3 -52.265,44.143 8.44,-42.701 -3.564,-75.34 -6.775,-82.992 -0.474,-1.129 -0.755,-1.72 -0.755,-1.72 0,0 -17.292,36.082 -7.568,85.135 C -4.616,60.77 -34.303,49.367 -34.303,49.367 c 0,0 9.625,30.198 41.567,54.88 -31.3,-6.08 -54.441,2.652 -54.441,2.652 0,0 19.434,12.725 57.968,11.906 -9.673,7.008 -21.542,11.167 -34.402,11.167 -32.55,0 -58.928,-26.389 -58.928,-58.939 0,-17.715 7.85,-33.566 20.226,-44.368 L -43.47,7.821 C -32.187,2.82 -16.933,0 0,0" /></g><g
           transform="translate(233.6612,153.1489)"
           id="g78"><path
             id="path80"
             style="fill:#649e5f;fill-opacity:1;fill-rule:nonzero;stroke:none"
             d="m 0,0 c -48.733,-46.043 -103.783,-51.366 -126.516,-51.366 -12.259,0 -23.7,1.49 -33.65,4.141 l 14.433,-14.431 c 6.802,-0.556 13.518,-0.86 19.968,-0.86 77.292,0 112.011,39.33 125.765,62.516" /></g><g
           transform="translate(107.8965,84.497)"
           id="g82"><path
             id="path84"
             style="fill:#649e5f;fill-opacity:1;fill-rule:nonzero;stroke:none"
             d="m 0,0 c -4.362,0 -8.849,0.163 -13.385,0.41 l 33.833,-33.83 c 1.425,-1.43 3.361,-2.228 5.379,-2.228 2.012,0 3.957,0.798 5.379,2.228 L 86.417,21.787 C 65.737,9.361 37.688,0 0,0" /></g></g></g></g></svg>