<?xml version="1.0" encoding="UTF-8" standalone="no"?>
<svg
   xmlns:dc="http://purl.org/dc/elements/1.1/"
   xmlns:cc="http://creativecommons.org/ns#"
   xmlns:rdf="http://www.w3.org/1999/02/22-rdf-syntax-ns#"
   xmlns:svg="http://www.w3.org/2000/svg"
   xmlns="http://www.w3.org/2000/svg"
   viewBox="0 0 688.69464 688.68268"
   height="20.68268"
   width="40.69464"
   xml:space="preserve"
   id="svg2"
   version="1.1"><metadata
     id="metadata8"><rdf:RDF><cc:Work
         rdf:about=""><dc:format>image/svg+xml</dc:format><dc:type
           rdf:resource="http://purl.org/dc/dcmitype/StillImage" /></cc:Work></rdf:RDF></metadata><defs
     id="defs6"><clipPath
       id="clipPath18"
       clipPathUnits="userSpaceOnUse"><path
         id="path16"
         d="M 0,516.512 H 516.521 V 0 H 0 Z" /></clipPath></defs><g
     transform="matrix(1.3333333,0,0,-1.3333333,0,688.68267)"
     id="g10"><g
       id="g12"><g
         clip-path="url(#clipPath18)"
         id="g14"><g
           transform="translate(311.687,153.2741)"
           id="g20"><path
             id="path22"
             style="fill:none;stroke:#ffffff;stroke-width:25;stroke-linecap:butt;stroke-linejoin:miter;stroke-miterlimit:10;stroke-dasharray:none;stroke-opacity:1"
             d="m 0,0 c 0,0 41.462,23.736 52.316,29.44 10.824,5.724 22.037,7.168 28.846,3.01 10.313,-6.307 96.901,-63.907 104.192,-69.007 7.292,-5.11 10.803,-19.702 0.779,-33.997 -9.985,-14.295 -56.044,-70.819 -75.562,-70.216 -19.548,0.635 -100.822,2.417 -254.084,155.72 -153.232,153.252 -155.044,234.548 -155.669,254.096 -0.625,19.537 55.9,65.607 70.195,75.601 14.316,9.985 28.928,6.227 34.008,-0.798 5.775,-7.997 62.709,-94.31 68.976,-104.203 4.291,-6.758 2.713,-18.032 -3.011,-28.866 -5.693,-10.854 -29.429,-52.316 -29.429,-52.316 0,0 16.732,-28.539 73.318,-85.114 C -28.528,16.763 0,0 0,0 Z" /></g></g></g></g></svg>