<?xml version="1.0" encoding="UTF-8" standalone="no"?>
<svg
   xmlns:dc="http://purl.org/dc/elements/1.1/"
   xmlns:cc="http://creativecommons.org/ns#"
   xmlns:rdf="http://www.w3.org/1999/02/22-rdf-syntax-ns#"
   xmlns:svg="http://www.w3.org/2000/svg"
   xmlns="http://www.w3.org/2000/svg"
   viewBox="0 0 512 502.66666"
   height="502.66666"
   width="512"
   xml:space="preserve"
   id="svg2"
   version="1.1"><metadata
     id="metadata8"><rdf:RDF><cc:Work
         rdf:about=""><dc:format>image/svg+xml</dc:format><dc:type
           rdf:resource="http://purl.org/dc/dcmitype/StillImage" /></cc:Work></rdf:RDF></metadata><defs
     id="defs6"><clipPath
       id="clipPath18"
       clipPathUnits="userSpaceOnUse"><path
         id="path16"
         d="M 0,377 H 384 V 0 H 0 Z" /></clipPath></defs><g
     transform="matrix(1.3333333,0,0,-1.3333333,0,502.66667)"
     id="g10"><g
       id="g12"><g
         clip-path="url(#clipPath18)"
         id="g14"><g
           transform="translate(377,25)"
           id="g20"><path
             id="path22"
             style="fill:#404040;fill-opacity:1;fill-rule:nonzero;stroke:none"
             d="m 0,0 c 0,-13.8 -11.2,-25 -25,-25 -13.8,0 -25,11.2 -25,25 0,13.8 11.2,25 25,25 C -11.2,25 0,13.8 0,0" /></g><g
           transform="translate(89,25)"
           id="g24"><path
             id="path26"
             style="fill:#404040;fill-opacity:1;fill-rule:nonzero;stroke:none"
             d="m 0,0 c 0,-13.8 -11.2,-25 -25,-25 -13.8,0 -25,11.2 -25,25 0,13.8 11.2,25 25,25 C -11.2,25 0,13.8 0,0" /></g><g
           transform="translate(63.8999,345)"
           id="g28"><path
             id="path30"
             style="fill:#404040;fill-opacity:1;fill-rule:nonzero;stroke:none"
             d="M 0,0 -11.1,32 H -63.9 V 15 h 41.7 l 57.5,-213.3 c -32.4,-11.3 -59.9,-37.9 -65.3,-73.1 -1.9,-11.7 -1.9,-16.6 -1.9,-16.6 h 352 v 16.7 H -12.6 c 4.7,31.6 38.8,58.1 74.1,62.5 35.3,4.4 243.3,34.2 243.3,34.2 L 320.1,0 Z m 288.1,-160 -235,-33.3 c -0.9,-0.2 -1.8,-0.4 -2.7,-0.6 L 5.7,-16.6 h 297.7 z" /></g></g></g></g></svg>