<?xml version="1.0" encoding="UTF-8" standalone="no"?>
<svg
   xmlns:dc="http://purl.org/dc/elements/1.1/"
   xmlns:cc="http://creativecommons.org/ns#"
   xmlns:rdf="http://www.w3.org/1999/02/22-rdf-syntax-ns#"
   xmlns:svg="http://www.w3.org/2000/svg"
   xmlns="http://www.w3.org/2000/svg"
   viewBox="0 0 409.60001 409.60001"
   height="409.60001"
   width="409.60001"
   xml:space="preserve"
   id="svg2"
   version="1.1"><metadata
     id="metadata8"><rdf:RDF><cc:Work
         rdf:about=""><dc:format>image/svg+xml</dc:format><dc:type
           rdf:resource="http://purl.org/dc/dcmitype/StillImage" /></cc:Work></rdf:RDF></metadata><defs
     id="defs6"><clipPath
       id="clipPath18"
       clipPathUnits="userSpaceOnUse"><path
         id="path16"
         d="M 0,307.2 H 307.2 V 0 H 0 Z" /></clipPath></defs><g
     transform="matrix(1.3333333,0,0,-1.3333333,0,409.6)"
     id="g10"><g
       id="g12"><g
         clip-path="url(#clipPath18)"
         id="g14"><g
           transform="translate(227.8403,186.88)"
           id="g20"><path
             id="path22"
             style="fill:#404040;fill-opacity:1;fill-rule:evenodd;stroke:none"
             d="M 0,0 C 0,59.392 -48.128,107.008 -107.008,107.008 -166.4,107.008 -214.016,58.88 -214.016,0 c 0,-59.392 48.128,-107.008 107.008,-107.008 C -48.128,-107.52 0,-59.392 0,0 m 79.359,-177.664 -9.215,-9.216 -97.281,97.28 c -21.504,-18.944 -49.151,-30.72 -80.384,-30.72 -66.559,0 -120.319,53.76 -120.319,120.32 0,66.56 53.76,120.32 120.319,120.32 C -40.96,120.32 12.8,66.56 12.8,0 12.8,-30.72 1.023,-58.88 -17.92,-80.384 Z" /></g></g></g></g></svg>